<svg width="47" height="52" viewBox="0 0 47 52" fill="none" xmlns="http://www.w3.org/2000/svg">
<path d="M35.087 45.6297V50.6501C35.087 51.1194 34.7065 51.5 34.2371 51.5C33.7678 51.5 33.3872 51.1194 33.3872 50.6501V45.6297C33.3872 41.7207 30.2241 38.5574 26.3148 38.5575C24.4651 38.5575 22.7869 37.6152 21.8253 36.0367C21.5812 35.6359 21.7082 35.1129 22.1091 34.8687C22.5099 34.6245 23.0328 34.7516 23.2771 35.1525C23.9274 36.2203 25.063 36.8577 26.3148 36.8577C31.1631 36.8575 35.087 40.781 35.087 45.6297ZM20.2558 37.1103C20.3558 37.5689 20.065 38.0217 19.6064 38.1217C17.3697 38.609 15.0949 38.1212 13.2836 36.8849C11.4906 38.8064 9.12174 38.5575 9.43886 38.5575C5.5299 38.5574 2.3664 41.7204 2.3664 45.6297V50.6501C2.3664 51.1194 1.98587 51.5 1.51651 51.5C1.04716 51.5 0.666626 51.1194 0.666626 50.6501V45.6297C0.666626 40.7815 4.58982 36.8577 9.43864 36.8577C11.4 36.8577 12.99 35.2774 12.99 33.3156V33.0917C9.28035 31.3179 6.67651 27.5904 6.51779 23.2497C4.99118 22.8827 3.85371 21.5162 3.85371 19.8905V15.4846C3.80728 13.328 4.12748 7.92663 8.06576 4.13039C12.9287 -0.557378 20.7273 -0.259599 26.4617 2.50095C27.0206 2.77025 27.1055 3.52538 26.6413 3.91643C29.5464 4.62503 32.0514 6.41086 33.6608 8.96668C33.7439 9.09831 33.896 9.30494 33.8563 9.63459C33.8316 9.83973 33.7705 10.0133 33.6124 10.1737C32.5766 11.2242 32.0063 12.6162 32.0063 14.0934V19.8907C32.0063 20.3601 31.6257 20.7406 31.1564 20.7406C30.687 20.7406 30.3065 20.3601 30.3065 19.8907V14.0934C30.3065 12.3897 30.8886 10.7726 31.9576 9.47354C30.3282 7.14314 27.7859 5.64436 24.9108 5.33649L23.417 5.1765C22.5435 5.08301 22.3721 3.87968 23.1839 3.54556L23.8633 3.26585C15.0153 0.181281 5.55338 3.60856 5.55338 15.4753V19.8905C5.55338 20.5649 5.94178 21.151 6.5095 21.4454V15.9357C6.5095 12.6553 9.17837 9.98644 12.4587 9.98644H23.2948C26.5752 9.98644 29.244 12.6551 29.244 15.9353V22.8941C29.244 30.2854 22.0212 35.8995 14.6716 33.7358C14.6238 34.3422 14.4729 34.9274 14.2269 35.4713C15.6566 36.4531 17.4621 36.8492 19.2444 36.4608C19.7031 36.3609 20.1558 36.6517 20.2558 37.1103ZM17.8768 32.497C23.2075 32.497 27.5442 28.1602 27.5442 22.8295V15.9353C27.5442 13.5924 25.6379 11.6862 23.2948 11.6862H12.4587C10.1156 11.6862 8.20928 13.5925 8.20928 15.9357V22.8295C8.20928 28.1602 12.546 32.497 17.8768 32.497ZM26.4819 47.1443H23.9322C23.4629 47.1443 23.0823 47.5248 23.0823 47.9942C23.0823 48.4636 23.4629 48.8441 23.9322 48.8441H26.4819C26.9512 48.8441 27.3318 48.4636 27.3318 47.9942C27.3318 47.5248 26.9512 47.1443 26.4819 47.1443Z" fill="#E04E39"/>
<path d="M37.3751 21.0684C39.0246 20.6678 40.1767 19.2029 40.1767 17.5064C40.1767 15.8973 39.1438 14.4915 37.6065 14.0082C37.118 13.8548 36.8465 13.3343 37.0001 12.8459C37.1536 12.3574 37.674 12.0855 38.1624 12.2394C39.2593 12.5841 40.2443 13.2838 40.9358 14.2095C41.6522 15.1688 42.0309 16.3089 42.0309 17.5065C42.0309 20.0613 40.2964 22.2669 37.8128 22.8703C37.7392 22.8881 37.6656 22.8967 37.5933 22.8967C37.1754 22.8967 36.7961 22.6122 36.6931 22.1882C36.5722 21.6907 36.8776 21.1893 37.3751 21.0684Z" fill="#E04E39"/>
<path d="M40.8792 24.9276C43.4956 23.3834 45.1211 20.5399 45.1211 17.5065C45.1211 14.5277 43.6132 11.8007 41.0874 10.2119C40.654 9.93929 40.5237 9.36691 40.7963 8.93347C41.069 8.50015 41.641 8.36993 42.0747 8.64237C45.1432 10.5727 46.9752 13.8863 46.9752 17.5065C46.9752 19.3601 46.4839 21.1817 45.5542 22.7743C44.6527 24.3185 43.3619 25.6153 41.8216 26.5244C41.6736 26.6117 41.5114 26.6532 41.3512 26.6532C41.034 26.6532 40.7249 26.4902 40.552 26.1972C40.2917 25.7562 40.4382 25.1878 40.8792 24.9276Z" fill="#E04E39"/>
</svg>
