<svg width="56" height="70" viewBox="0 0 56 70" fill="none" xmlns="http://www.w3.org/2000/svg">
<path d="M34.7536 54.6297V59.6501C34.7536 60.1194 34.3731 60.5 33.9037 60.5C33.4344 60.5 33.0539 60.1194 33.0539 59.6501V54.6297C33.0539 50.7207 29.8907 47.5574 25.9814 47.5575C24.1317 47.5575 22.4535 46.6152 21.492 45.0367C21.2478 44.6359 21.3748 44.1129 21.7757 43.8687C22.1766 43.6245 22.6994 43.7516 22.9437 44.1525C23.5941 45.2203 24.7296 45.8577 25.9814 45.8577C30.8297 45.8575 34.7536 49.781 34.7536 54.6297ZM19.9224 46.1103C20.0224 46.5689 19.7316 47.0217 19.273 47.1217C17.0363 47.609 14.7615 47.1212 12.9503 45.8849C11.1572 47.8064 8.78837 47.5575 9.10548 47.5575C5.19653 47.5574 2.03303 50.7204 2.03303 54.6297V59.6501C2.03303 60.1194 1.65249 60.5 1.18314 60.5C0.713789 60.5 0.333252 60.1194 0.333252 59.6501V54.6297C0.333252 49.7815 4.25644 45.8577 9.10527 45.8577C11.0666 45.8577 12.6566 44.2774 12.6566 42.3156V42.0917C8.94698 40.3179 6.34313 36.5904 6.18442 32.2497C4.6578 31.8827 3.52033 30.5162 3.52033 28.8905V24.4846C3.47391 22.328 3.7941 16.9266 7.73238 13.1304C12.5953 8.44262 20.3939 8.7404 26.1283 11.5009C26.6872 11.7703 26.7721 12.5254 26.308 12.9164C29.213 13.625 31.718 15.4109 33.3274 17.9667C33.4105 18.0983 33.5626 18.3049 33.5229 18.6346C33.4982 18.8397 33.4372 19.0133 33.2791 19.1737C32.2433 20.2242 31.6729 21.6162 31.6729 23.0934V28.8907C31.6729 29.3601 31.2924 29.7406 30.823 29.7406C30.3537 29.7406 29.9731 29.3601 29.9731 28.8907V23.0934C29.9731 21.3897 30.5552 19.7726 31.6242 18.4735C29.9948 16.1431 27.4526 14.6444 24.5774 14.3365L23.0836 14.1765C22.2101 14.083 22.0388 12.8797 22.8505 12.5456L23.5299 12.2658C14.6819 9.18128 5.22 12.6086 5.22 24.4753V28.8905C5.22 29.5649 5.6084 30.151 6.17613 30.4454V24.9357C6.17613 21.6553 8.84499 18.9864 12.1253 18.9864H22.9614C26.2418 18.9864 28.9106 21.6551 28.9106 24.9353V31.8941C28.9106 39.2854 21.6879 44.8995 14.3382 42.7358C14.2904 43.3422 14.1395 43.9274 13.8935 44.4713C15.3233 45.4531 17.1287 45.8492 18.9111 45.4608C19.3697 45.3609 19.8225 45.6517 19.9224 46.1103ZM17.5434 41.497C22.8741 41.497 27.2109 37.1602 27.2109 31.8295V24.9353C27.2109 22.5924 25.3046 20.6862 22.9614 20.6862H12.1253C9.78221 20.6862 7.87591 22.5925 7.87591 24.9357V31.8295C7.87591 37.1602 12.2127 41.497 17.5434 41.497ZM26.1485 56.1443H23.5988C23.1295 56.1443 22.749 56.5248 22.749 56.9942C22.749 57.4636 23.1295 57.8441 23.5988 57.8441H26.1485C26.6179 57.8441 26.9984 57.4636 26.9984 56.9942C26.9984 56.5248 26.6179 56.1443 26.1485 56.1443Z" fill="#E04E39"/>
<path d="M35.2034 26.8124C35.2595 26.7207 35.3175 26.6306 35.3771 26.5421C36.0149 25.5961 36.8502 24.8347 37.8142 24.3019C37.9421 24.547 38.1172 24.7732 38.34 24.9662L38.995 24.2103L39.7034 24.5102L35.2034 26.8124ZM35.2034 26.8124C35.1998 26.8183 35.1959 26.8245 35.1919 26.8309C35.14 26.914 35.0616 27.0395 35.0841 27.2315L35.2034 26.8124ZM41.6225 44.685C41.623 44.6942 41.6234 44.7034 41.624 44.7126L41.3223 44.5479C41.3222 44.5478 41.322 44.5477 41.3219 44.5476C41.4187 44.6083 41.5197 44.6537 41.6225 44.685ZM41.6225 44.685C41.6314 44.6877 41.6403 44.6903 41.6491 44.6927M41.6225 44.685C41.614 44.4942 41.6291 44.3006 41.6698 44.1083L42.1384 44.2076M41.6491 44.6927L41.751 43.8202C41.7405 43.85 41.7305 43.8801 41.7212 43.9104C41.7211 43.9108 41.7209 43.9112 41.7208 43.9115C41.701 43.9759 41.684 44.0416 41.6698 44.1083L42.1384 44.2076M41.6491 44.6927C41.827 44.5507 41.9911 44.3884 42.1384 44.2076M41.6491 44.6927L42.287 44.0107C42.2396 44.0786 42.19 44.1442 42.1384 44.2076M43.6617 44.5305L43.662 44.5306L43.6617 44.5305ZM39.9073 51.3003C39.9073 51.4859 39.9519 51.6685 40.0335 51.8336H40.6886C40.7702 51.6685 40.8147 51.4859 40.8147 51.3003C40.8147 51.1147 40.7702 50.9321 40.6886 50.767H40.0335C39.9519 50.9321 39.9073 51.1147 39.9073 51.3003Z" fill="#E04E39" stroke="#E04E39" stroke-width="3.5"/>
</svg>
