<svg width="35" height="51" viewBox="0 0 35 51" fill="none" xmlns="http://www.w3.org/2000/svg">
<path d="M34.7104 45.1297V50.1501C34.7104 50.6194 34.3299 51 33.8605 51C33.3912 51 33.0106 50.6194 33.0106 50.1501V45.1297C33.0106 41.2207 29.8475 38.0574 25.9382 38.0575C24.0885 38.0575 22.4103 37.1152 21.4488 35.5367C21.2046 35.1359 21.3316 34.6129 21.7325 34.3687C22.1333 34.1245 22.6562 34.2516 22.9005 34.6525C23.5508 35.7203 24.6864 36.3577 25.9382 36.3577C30.7865 36.3575 34.7104 40.281 34.7104 45.1297ZM19.8792 36.6103C19.9792 37.0689 19.6884 37.5217 19.2298 37.6217C16.9931 38.109 14.7183 37.6212 12.9071 36.3849C11.114 38.3064 8.74516 38.0575 9.06227 38.0575C5.15331 38.0574 1.98982 41.2204 1.98982 45.1297V50.1501C1.98982 50.6194 1.60928 51 1.13993 51C0.670577 51 0.290039 50.6194 0.290039 50.1501V45.1297C0.290039 40.2815 4.21323 36.3577 9.06206 36.3577C11.0234 36.3577 12.6134 34.7774 12.6134 32.8156V32.5917C8.90377 30.8179 6.29992 27.0904 6.1412 22.7497C4.61459 22.3827 3.47712 21.0162 3.47712 19.3905V14.9846C3.4307 12.828 3.75089 7.42663 7.68917 3.63039C12.5521 -1.05738 20.3507 -0.759599 26.0851 2.00095C26.644 2.27025 26.7289 3.02538 26.2648 3.41643C29.1698 4.12503 31.6748 5.91086 33.2842 8.46668C33.3673 8.59831 33.5194 8.80494 33.4797 9.13459C33.455 9.33973 33.3939 9.51332 33.2359 9.67374C32.2001 10.7242 31.6297 12.1162 31.6297 13.5934V19.3907C31.6297 19.8601 31.2491 20.2406 30.7798 20.2406C30.3104 20.2406 29.9299 19.8601 29.9299 19.3907V13.5934C29.9299 11.8897 30.512 10.2726 31.581 8.97354C29.9516 6.64314 27.4093 5.14436 24.5342 4.83649L23.0404 4.6765C22.1669 4.58301 21.9956 3.37968 22.8073 3.04556L23.4867 2.76585C14.6387 -0.318719 5.17679 3.10856 5.17679 14.9753V19.3905C5.17679 20.0649 5.56519 20.651 6.13292 20.9454V15.4357C6.13292 12.1553 8.80178 9.48644 12.0821 9.48644H22.9182C26.1986 9.48644 28.8674 12.1551 28.8674 15.4353V22.3941C28.8674 29.7854 21.6447 35.3995 14.295 33.2358C14.2472 33.8422 14.0963 34.4274 13.8503 34.9713C15.2801 35.9531 17.0855 36.3492 18.8679 35.9608C19.3265 35.8609 19.7793 36.1517 19.8792 36.6103ZM17.5002 31.997C22.8309 31.997 27.1677 27.6602 27.1677 22.3295V15.4353C27.1677 13.0924 25.2614 11.1862 22.9182 11.1862H12.0821C9.73899 11.1862 7.83269 13.0925 7.83269 15.4357V22.3295C7.83269 27.6602 12.1695 31.997 17.5002 31.997ZM26.1053 46.6443H23.5556C23.0863 46.6443 22.7057 47.0248 22.7057 47.4942C22.7057 47.9636 23.0863 48.3441 23.5556 48.3441H26.1053C26.5746 48.3441 26.9552 47.9636 26.9552 47.4942C26.9552 47.0248 26.5746 46.6443 26.1053 46.6443Z" fill="#E04E39"/>
</svg>
