<svg width="48" height="52" viewBox="0 0 48 52" fill="none" xmlns="http://www.w3.org/2000/svg">
<path d="M3.76923 26.3958H34.2308C35.7602 26.3958 37 27.4828 37 28.8236V44.1995C37 45.5404 35.7602 46.6273 34.2308 46.6273H9.76923L3.76923 50.6736V46.6273C2.23983 46.6273 1 45.5404 1 44.1995V28.8236C1 27.4828 2.23983 26.3958 3.76923 26.3958Z" stroke="#E04E39" stroke-width="1.6" stroke-linejoin="round"/>
<line x1="7.80049" y1="32.707" x2="12.2005" y2="32.707" stroke="#E04E39" stroke-width="1.6" stroke-linecap="round"/>
<line x1="16.8001" y1="32.707" x2="30.2001" y2="32.707" stroke="#E04E39" stroke-width="1.6" stroke-linecap="round"/>
<line x1="7.80049" y1="36.5403" x2="12.2005" y2="36.5403" stroke="#E04E39" stroke-width="1.6" stroke-linecap="round"/>
<line x1="16.8001" y1="36.5403" x2="30.2001" y2="36.5403" stroke="#E04E39" stroke-width="1.6" stroke-linecap="round"/>
<line x1="7.80049" y1="40.3736" x2="12.2005" y2="40.3736" stroke="#E04E39" stroke-width="1.6" stroke-linecap="round"/>
<line x1="16.8001" y1="40.3736" x2="30.2001" y2="40.3736" stroke="#E04E39" stroke-width="1.6" stroke-linecap="round"/>
<path d="M43.9233 1.32639H10.0771C8.37777 1.32639 7.00018 2.44567 7.00018 3.82639V19.6597C7.00018 21.0404 8.37777 22.1597 10.0771 22.1597H37.2566L43.9233 26.3264V22.1597C45.6226 22.1597 47.0002 21.0404 47.0002 19.6597V3.82639C47.0002 2.44567 45.6226 1.32639 43.9233 1.32639Z" stroke="#E04E39" stroke-width="1.6" stroke-linejoin="round"/>
<path d="M27.2078 13.1302H28.2159C28.2159 11.6624 30.0002 11.5392 30.0002 9.66801C30.0002 8.42431 29.0627 7.67361 27.6111 7.67361C26.4316 7.67361 25.5546 8.133 25.0002 8.92852L25.7361 9.51115C26.1393 8.93972 26.724 8.626 27.5405 8.626C28.4478 8.626 28.982 9.11899 28.982 9.83608C28.982 11.1246 27.2078 11.3711 27.2078 13.1302ZM27.722 15.6736C28.0949 15.6736 28.3671 15.3487 28.3671 14.9565C28.3671 14.5532 28.0949 14.2394 27.722 14.2394C27.3389 14.2394 27.0667 14.5532 27.0667 14.9565C27.0667 15.3487 27.3389 15.6736 27.722 15.6736Z" fill="#E04E39"/>
</svg>
