<svg width="58" height="70" viewBox="0 0 58 70" fill="none" xmlns="http://www.w3.org/2000/svg">
<path d="M34.4204 54.6297V59.6501C34.4204 60.1195 34.0398 60.5 33.5705 60.5C33.1011 60.5 32.7206 60.1195 32.7206 59.6501V54.6297C32.7206 50.7207 29.5574 47.5574 25.6481 47.5575C23.7985 47.5575 22.1203 46.6152 21.1587 45.0367C20.9146 44.6359 21.0415 44.1129 21.4425 43.8687C21.8433 43.6245 22.3662 43.7516 22.6104 44.1525C23.2608 45.2203 24.3964 45.8577 25.6481 45.8577C30.4964 45.8575 34.4204 49.781 34.4204 54.6297ZM19.5892 46.1103C19.6892 46.5689 19.3984 47.0217 18.9398 47.1217C16.7031 47.609 14.4282 47.1212 12.617 45.8849C10.824 47.8064 8.45512 47.5575 8.77223 47.5575C4.86328 47.5574 1.69978 50.7204 1.69978 54.6297V59.6501C1.69978 60.1195 1.31924 60.5 0.849889 60.5C0.380538 60.5 0 60.1195 0 59.6501V54.6297C0 49.7815 3.92319 45.8577 8.77202 45.8577C10.7333 45.8577 12.3234 44.2774 12.3234 42.3156V42.0917C8.61373 40.3179 6.00988 36.5904 5.85116 32.2497C4.32455 31.8827 3.18708 30.5162 3.18708 28.8905V24.4846C3.14066 22.328 3.46085 16.9266 7.39913 13.1304C12.2621 8.44262 20.0607 8.7404 25.7951 11.5009C26.354 11.7703 26.4389 12.5254 25.9747 12.9164C28.8797 13.625 31.3848 15.4109 32.9942 17.9667C33.0772 18.0983 33.2294 18.3049 33.1896 18.6346C33.165 18.8397 33.1039 19.0133 32.9458 19.1737C31.91 20.2242 31.3396 21.6162 31.3396 23.0934V28.8907C31.3396 29.3601 30.9591 29.7406 30.4897 29.7406C30.0204 29.7406 29.6399 29.3601 29.6399 28.8907V23.0934C29.6399 21.3897 30.2219 19.7726 31.291 18.4735C29.6615 16.1431 27.1193 14.6444 24.2441 14.3365L22.7503 14.1765C21.8769 14.083 21.7055 12.8797 22.5173 12.5456L23.1966 12.2658C14.3487 9.18128 4.88675 12.6086 4.88675 24.4753V28.8905C4.88675 29.5649 5.27515 30.151 5.84288 30.4454V24.9357C5.84288 21.6553 8.51174 18.9864 11.7921 18.9864H22.6282C25.9085 18.9864 28.5774 21.6551 28.5774 24.9353V31.8941C28.5774 39.2854 21.3546 44.8995 14.005 42.7358C13.9572 43.3422 13.8062 43.9274 13.5603 44.4713C14.99 45.4531 16.7955 45.8492 18.5778 45.4608C19.0364 45.3609 19.4892 45.6517 19.5892 46.1103ZM17.2101 41.497C22.5408 41.497 26.8776 37.1602 26.8776 31.8295V24.9353C26.8776 22.5924 24.9713 20.6862 22.6282 20.6862H11.7921C9.44895 20.6862 7.54265 22.5925 7.54265 24.9357V31.8295C7.54265 37.1602 11.8794 41.497 17.2101 41.497ZM25.8153 56.1443H23.2656C22.7962 56.1443 22.4157 56.5248 22.4157 56.9942C22.4157 57.4636 22.7962 57.8441 23.2656 57.8441H25.8153C26.2846 57.8441 26.6651 57.4636 26.6651 56.9942C26.6651 56.5248 26.2846 56.1443 25.8153 56.1443Z" fill="#E04E39"/>
<path d="M36.25 39.5C36.25 40.0394 35.9602 40.585 35.3784 41.0213C34.7964 41.4578 33.958 41.75 33 41.75C32.042 41.75 31.2036 41.4578 30.6216 41.0213C30.0398 40.585 29.75 40.0394 29.75 39.5C29.75 38.9606 30.0398 38.415 30.6216 37.9787C31.2036 37.5422 32.042 37.25 33 37.25C33.958 37.25 34.7964 37.5422 35.3784 37.9787C35.9602 38.415 36.25 38.9606 36.25 39.5Z" stroke="#E04E39" stroke-width="1.5"/>
<path d="M45.25 32C45.25 32.9536 44.7364 33.8742 43.7926 34.582C42.8487 35.2899 41.5103 35.75 40 35.75C38.4897 35.75 37.1513 35.2899 36.2074 34.582C35.2636 33.8742 34.75 32.9536 34.75 32C34.75 31.0464 35.2636 30.1258 36.2074 29.418C37.1513 28.7101 38.4897 28.25 40 28.25C41.5103 28.25 42.8487 28.7101 43.7926 29.418C44.7364 30.1258 45.25 31.0464 45.25 32Z" stroke="#E04E39" stroke-width="1.5"/>
<path d="M57.25 18.5C57.25 20.6963 56.0648 22.7418 54.0353 24.264C52.0055 25.7863 49.1671 26.75 46 26.75C42.8329 26.75 39.9945 25.7863 37.9647 24.264C35.9352 22.7418 34.75 20.6963 34.75 18.5C34.75 16.3037 35.9352 14.2582 37.9647 12.736C39.9945 11.2137 42.8329 10.25 46 10.25C49.1671 10.25 52.0055 11.2137 54.0353 12.736C56.0648 14.2582 57.25 16.3037 57.25 18.5Z" stroke="#E04E39" stroke-width="1.5"/>
</svg>
