<svg width="55" height="52" viewBox="0 0 55 52" fill="none" xmlns="http://www.w3.org/2000/svg">
<path d="M34.7536 45.6297V50.6501C34.7536 51.1195 34.3731 51.5 33.9037 51.5C33.4344 51.5 33.0539 51.1195 33.0539 50.6501V45.6297C33.0539 41.7207 29.8907 38.5574 25.9814 38.5575C24.1317 38.5575 22.4535 37.6152 21.492 36.0367C21.2478 35.6359 21.3748 35.1129 21.7757 34.8687C22.1766 34.6245 22.6994 34.7516 22.9437 35.1525C23.5941 36.2203 24.7296 36.8577 25.9814 36.8577C30.8297 36.8575 34.7536 40.781 34.7536 45.6297ZM19.9224 37.1103C20.0224 37.5689 19.7316 38.0217 19.273 38.1217C17.0363 38.609 14.7615 38.1212 12.9503 36.8849C11.1572 38.8064 8.78837 38.5575 9.10548 38.5575C5.19653 38.5574 2.03303 41.7204 2.03303 45.6297V50.6501C2.03303 51.1195 1.65249 51.5 1.18314 51.5C0.713789 51.5 0.333252 51.1195 0.333252 50.6501V45.6297C0.333252 40.7815 4.25644 36.8577 9.10527 36.8577C11.0666 36.8577 12.6566 35.2774 12.6566 33.3156V33.0917C8.94698 31.3179 6.34313 27.5904 6.18442 23.2497C4.6578 22.8827 3.52033 21.5162 3.52033 19.8905V15.4846C3.47391 13.328 3.7941 7.92663 7.73238 4.13039C12.5953 -0.557378 20.3939 -0.259599 26.1283 2.50095C26.6872 2.77025 26.7721 3.52538 26.308 3.91643C29.213 4.62503 31.718 6.41086 33.3274 8.96668C33.4105 9.09831 33.5626 9.30494 33.5229 9.63459C33.4982 9.83973 33.4372 10.0133 33.2791 10.1737C32.2433 11.2242 31.6729 12.6162 31.6729 14.0934V19.8907C31.6729 20.3601 31.2924 20.7406 30.823 20.7406C30.3537 20.7406 29.9731 20.3601 29.9731 19.8907V14.0934C29.9731 12.3897 30.5552 10.7726 31.6242 9.47354C29.9948 7.14314 27.4526 5.64436 24.5774 5.33649L23.0836 5.1765C22.2101 5.08301 22.0388 3.87968 22.8505 3.54556L23.5299 3.26584C14.6819 0.181281 5.22 3.60856 5.22 15.4753V19.8905C5.22 20.5649 5.6084 21.151 6.17613 21.4454V15.9357C6.17613 12.6553 8.84499 9.98644 12.1253 9.98644H22.9614C26.2418 9.98644 28.9106 12.6551 28.9106 15.9353V22.8941C28.9106 30.2854 21.6879 35.8995 14.3382 33.7358C14.2904 34.3422 14.1395 34.9274 13.8935 35.4713C15.3233 36.4531 17.1287 36.8492 18.9111 36.4608C19.3697 36.3609 19.8225 36.6517 19.9224 37.1103ZM17.5434 32.497C22.8741 32.497 27.2109 28.1602 27.2109 22.8295V15.9353C27.2109 13.5924 25.3046 11.6862 22.9614 11.6862H12.1253C9.78221 11.6862 7.87591 13.5925 7.87591 15.9357V22.8295C7.87591 28.1602 12.2127 32.497 17.5434 32.497Z" fill="#E04E39"/>
<circle cx="28.0093" cy="47.4187" r="2.92603" stroke="#E04E39" stroke-width="1.5"/>
<circle cx="43.3052" cy="39.7618" r="2.92603" stroke="#E04E39" stroke-width="1.5"/>
<circle cx="35.9529" cy="27.2633" r="2.92603" stroke="#E04E39" stroke-width="1.5"/>
<circle cx="50.6574" cy="19.176" r="2.92603" stroke="#E04E39" stroke-width="1.5"/>
<rect x="29.9818" y="45.4719" width="11.1538" height="1.47041" transform="rotate(-26.3862 29.9818 45.4719)" fill="#E04E39"/>
<rect x="38.2457" y="29.6299" width="8.33733" height="1.47041" transform="rotate(60.6186 38.2457 29.6299)" fill="#E04E39"/>
<rect x="38.3088" y="24.8643" width="10.4751" height="1.47041" transform="rotate(-27.9551 38.3088 24.8643)" fill="#E04E39"/>
</svg>
