<svg width="71" height="52" viewBox="0 0 71 52" fill="none" xmlns="http://www.w3.org/2000/svg">
<path d="M35.087 45.6297V50.6501C35.087 51.1195 34.7065 51.5 34.2371 51.5C33.7678 51.5 33.3872 51.1195 33.3872 50.6501V45.6297C33.3872 41.7207 30.2241 38.5574 26.3148 38.5575C24.4651 38.5575 22.7869 37.6152 21.8253 36.0367C21.5812 35.6359 21.7082 35.1129 22.1091 34.8687C22.5099 34.6245 23.0328 34.7516 23.2771 35.1525C23.9274 36.2203 25.063 36.8577 26.3148 36.8577C31.1631 36.8575 35.087 40.781 35.087 45.6297ZM20.2558 37.1103C20.3558 37.5689 20.065 38.0217 19.6064 38.1217C17.3697 38.609 15.0949 38.1212 13.2836 36.8849C11.4906 38.8064 9.12174 38.5575 9.43886 38.5575C5.5299 38.5574 2.3664 41.7204 2.3664 45.6297V50.6501C2.3664 51.1195 1.98587 51.5 1.51651 51.5C1.04716 51.5 0.666626 51.1195 0.666626 50.6501V45.6297C0.666626 40.7815 4.58982 36.8577 9.43864 36.8577C11.4 36.8577 12.99 35.2774 12.99 33.3156V33.0917C9.28035 31.3179 6.67651 27.5904 6.51779 23.2497C4.99118 22.8827 3.85371 21.5162 3.85371 19.8905V15.4846C3.80728 13.328 4.12748 7.92663 8.06576 4.13039C12.9287 -0.557378 20.7273 -0.259599 26.4617 2.50095C27.0206 2.77025 27.1055 3.52538 26.6413 3.91643C29.5464 4.62503 32.0514 6.41086 33.6608 8.96668C33.7439 9.09831 33.896 9.30494 33.8563 9.63459C33.8316 9.83973 33.7705 10.0133 33.6124 10.1737C32.5766 11.2242 32.0063 12.6162 32.0063 14.0934V19.8907C32.0063 20.3601 31.6257 20.7406 31.1564 20.7406C30.687 20.7406 30.3065 20.3601 30.3065 19.8907V14.0934C30.3065 12.3897 30.8886 10.7726 31.9576 9.47354C30.3282 7.14314 27.7859 5.64436 24.9108 5.33649L23.417 5.1765C22.5435 5.08301 22.3721 3.87968 23.1839 3.54556L23.8633 3.26584C15.0153 0.181281 5.55338 3.60856 5.55338 15.4753V19.8905C5.55338 20.5649 5.94178 21.151 6.5095 21.4454V15.9357C6.5095 12.6553 9.17837 9.98644 12.4587 9.98644H23.2948C26.5752 9.98644 29.244 12.6551 29.244 15.9353V22.8941C29.244 30.2854 22.0212 35.8995 14.6716 33.7358C14.6238 34.3422 14.4729 34.9274 14.2269 35.4713C15.6566 36.4531 17.4621 36.8492 19.2444 36.4608C19.7031 36.3609 20.1558 36.6517 20.2558 37.1103ZM17.8768 32.497C23.2075 32.497 27.5442 28.1602 27.5442 22.8295V15.9353C27.5442 13.5924 25.6379 11.6862 23.2948 11.6862H12.4587C10.1156 11.6862 8.20928 13.5925 8.20928 15.9357V22.8295C8.20928 28.1602 12.546 32.497 17.8768 32.497ZM26.4819 47.1443H23.9322C23.4629 47.1443 23.0823 47.5248 23.0823 47.9942C23.0823 48.4636 23.4629 48.8441 23.9322 48.8441H26.4819C26.9512 48.8441 27.3318 48.4636 27.3318 47.9942C27.3318 47.5248 26.9512 47.1443 26.4819 47.1443Z" fill="#E04E39"/>
<path d="M38.846 22.2509H62.8189C64.0226 22.2509 64.9983 23.237 64.9983 24.4535V38.4031C64.9983 39.6195 64.0226 40.6056 62.8189 40.6056H43.5679L38.846 44.2766V40.6056C37.6423 40.6056 36.6666 39.6195 36.6666 38.4031V24.4535C36.6666 23.237 37.6423 22.2509 38.846 22.2509Z" stroke="#E04E39" stroke-width="1.6" stroke-linejoin="round"/>
<line x1="42.2039" y1="25.8711" x2="45.8676" y2="25.8711" stroke="#E04E39" stroke-width="1.6" stroke-linecap="round"/>
<line x1="49.5729" y1="25.8711" x2="55.8684" y2="25.8711" stroke="#E04E39" stroke-width="1.6" stroke-linecap="round"/>
<line x1="42.2039" y1="29.5118" x2="45.8676" y2="29.5118" stroke="#E04E39" stroke-width="1.6" stroke-linecap="round"/>
<line x1="49.5729" y1="29.5118" x2="55.8684" y2="29.5118" stroke="#E04E39" stroke-width="1.6" stroke-linecap="round"/>
<line x1="42.2039" y1="32.5458" x2="45.8676" y2="32.5458" stroke="#E04E39" stroke-width="1.6" stroke-linecap="round"/>
<line x1="49.5729" y1="32.5458" x2="55.8684" y2="32.5458" stroke="#E04E39" stroke-width="1.6" stroke-linecap="round"/>
<line x1="42.2039" y1="36.1865" x2="45.621" y2="36.1865" stroke="#E04E39" stroke-width="1.6" stroke-linecap="round"/>
<line x1="49.5729" y1="36.1865" x2="60.0793" y2="36.1865" stroke="#E04E39" stroke-width="1.6" stroke-linecap="round"/>
<g filter="url(#filter0_d)">
<path d="M64.9722 18.2954C65.2642 17.8266 65.8704 17.6992 66.3264 18.0109L69.6535 20.2857C70.1095 20.5974 70.2424 21.2302 69.9504 21.699L62.3493 33.905C62.1807 34.1757 61.8967 34.3443 61.5847 34.3589L59.1416 34.4733C58.7153 34.4933 58.3208 34.2236 58.1666 33.8067L57.2825 31.4175C57.1696 31.1124 57.2025 30.7721 57.3711 30.5014L64.9722 18.2954Z" fill="white"/>
<path d="M65.5914 18.7187C65.6644 18.6015 65.8159 18.5696 65.9299 18.6476L69.2571 20.9224C69.3711 21.0003 69.4043 21.1585 69.3313 21.2757L61.7302 33.4817C61.688 33.5493 61.617 33.5915 61.539 33.5951L61.5847 34.3589L61.539 33.5951L59.0959 33.7096C58.9893 33.7146 58.8907 33.6471 58.8521 33.5429L57.9681 31.1537L57.4183 31.3652L57.9681 31.1537C57.9399 31.0774 57.9481 30.9923 57.9903 30.9247L65.5914 18.7187Z" stroke="white" stroke-width="1.5"/>
</g>
<g filter="url(#filter1_d)">
<path d="M65.764 18.8367C66.0559 18.3679 66.6622 18.2406 67.1181 18.5523L68.8786 19.7559C69.3345 20.0677 69.4675 20.7004 69.1755 21.1692L61.7852 33.0367C61.648 33.2569 61.4331 33.4116 61.1856 33.4681L59.7225 33.8023C59.1831 33.9255 58.6452 33.5578 58.5356 32.9909L58.2383 31.453C58.188 31.193 58.2365 30.9245 58.3736 30.7043L65.764 18.8367Z" fill="white"/>
<path d="M66.3831 19.26C66.4561 19.1428 66.6077 19.111 66.7216 19.1889L68.4822 20.3926C68.5962 20.4705 68.6294 20.6287 68.5564 20.7459L61.166 32.6134C61.1318 32.6685 61.078 32.7072 61.0162 32.7213L59.553 33.0555C59.4182 33.0863 59.2837 32.9943 59.2563 32.8526L58.9589 31.3148C58.9463 31.2497 58.9585 31.1826 58.9928 31.1276L66.3831 19.26Z" stroke="#E04E39" stroke-width="1.5"/>
</g>
<defs>
<filter id="filter0_d" x="57.2164" y="17.8403" width="12.8889" height="16.634" filterUnits="userSpaceOnUse" color-interpolation-filters="sRGB">
<feFlood flood-opacity="0" result="BackgroundImageFix"/>
<feColorMatrix in="SourceAlpha" type="matrix" values="0 0 0 0 0 0 0 0 0 0 0 0 0 0 0 0 0 0 127 0" result="hardAlpha"/>
<feOffset/>
<feColorMatrix type="matrix" values="0 0 0 0 1 0 0 0 0 1 0 0 0 0 1 0 0 0 1 0"/>
<feBlend mode="normal" in2="BackgroundImageFix" result="effect1_dropShadow"/>
<feBlend mode="normal" in="SourceGraphic" in2="effect1_dropShadow" result="shape"/>
</filter>
<filter id="filter1_d" x="58.2189" y="18.3817" width="11.1115" height="15.4445" filterUnits="userSpaceOnUse" color-interpolation-filters="sRGB">
<feFlood flood-opacity="0" result="BackgroundImageFix"/>
<feColorMatrix in="SourceAlpha" type="matrix" values="0 0 0 0 0 0 0 0 0 0 0 0 0 0 0 0 0 0 127 0" result="hardAlpha"/>
<feOffset/>
<feColorMatrix type="matrix" values="0 0 0 0 1 0 0 0 0 1 0 0 0 0 1 0 0 0 1 0"/>
<feBlend mode="normal" in2="BackgroundImageFix" result="effect1_dropShadow"/>
<feBlend mode="normal" in="SourceGraphic" in2="effect1_dropShadow" result="shape"/>
</filter>
</defs>
</svg>
