<svg width="51" height="35" viewBox="0 0 51 35" fill="none" xmlns="http://www.w3.org/2000/svg">
<path d="M51 9.36888C50.9988 8.59461 50.7711 7.80939 50.2676 7.16213L46.2266 1.99161C45.5498 1.13218 44.5199 0.694595 43.4908 0.692902C42.8783 0.692902 42.2546 0.849886 41.7036 1.19354L37.7634 3.64493C37.349 3.90919 36.6386 4.09058 35.9524 4.0859C35.4193 4.08819 34.9041 3.98151 34.564 3.81346L30.7055 1.94449C30.0831 1.64487 29.3893 1.52205 28.6917 1.52086C27.6897 1.52554 26.675 1.77177 25.8596 2.33686L25.4094 2.65272C25.0495 2.47312 24.4995 2.19949 23.8766 1.88951C23.1295 1.52325 22.251 1.37553 21.3637 1.37264C20.5622 1.37493 19.7608 1.49844 19.0572 1.79568L16.4291 2.91708C16.0014 3.10255 15.321 3.22368 14.6453 3.22069C13.9695 3.22358 13.2904 3.10245 12.8627 2.91708L10.2322 1.79508C9.75236 1.59048 9.23947 1.50303 8.73116 1.50243C8.14586 1.50303 7.56404 1.61837 7.02326 1.83741C6.48318 2.05765 5.98184 2.38277 5.58261 2.82893L0.793392 8.19249C0.262574 8.78527 -0.0010923 9.53174 3.40086e-06 10.2666C-0.0010923 11.1428 0.373837 12.0219 1.097 12.638L5.56448 16.4494L3.44519 18.6602C2.86098 19.27 2.57012 20.0605 2.57012 20.8421C2.56903 21.6737 2.89933 22.5134 3.55357 23.1317L3.98348 23.5402C4.38859 23.9245 4.87538 24.1689 5.38479 24.2993C5.12929 24.7693 4.98964 25.2846 4.99073 25.8008C4.98964 26.6331 5.31994 27.4722 5.97298 28.0912L5.97188 28.0906L6.40309 28.5009C7.01689 29.0827 7.81257 29.3724 8.59649 29.3719C9.01784 29.3725 9.43968 29.2879 9.83613 29.1221C9.97528 29.6866 10.2627 30.2232 10.7147 30.652L11.1459 31.0623C11.7597 31.6441 12.5541 31.9339 13.3393 31.9334C13.9531 31.934 14.5697 31.7531 15.1005 31.402C15.2558 31.9015 15.5218 32.375 15.9268 32.7598L16.3581 33.17C16.9706 33.7519 17.7662 34.0416 18.5504 34.0411C19.3854 34.0417 20.2287 33.7137 20.8515 33.0635L22.7246 31.1075L25.2693 33.4627C25.8784 34.0277 26.6603 34.3088 27.432 34.3071C28.2799 34.3089 29.1352 33.9692 29.7594 33.301L30.1656 32.8658C30.5162 32.4892 30.7451 32.0435 30.8779 31.5782L31.8636 32.488C32.4739 33.0507 33.2546 33.3306 34.0253 33.33C34.8742 33.3306 35.732 32.9909 36.3567 32.3223L36.7606 31.8876C37.2271 31.3892 37.4897 30.7719 37.5708 30.1415C37.8309 30.2082 38.0946 30.2534 38.3606 30.2534C39.2095 30.2534 40.0649 29.9143 40.6902 29.2462L41.0953 28.8115C41.6615 28.2047 41.9432 27.4265 41.942 26.6592C41.942 26.421 41.9079 26.184 41.8551 25.9499C42.5592 25.8565 43.2419 25.5425 43.7611 24.9849L44.1673 24.5497C44.7335 23.9429 45.014 23.1647 45.014 22.3968C45.0151 21.5519 44.6744 20.6993 44.0021 20.0782L43.2424 19.3764L50.0993 11.7952C50.7149 11.1126 50.9989 10.2341 51 9.36888ZM6.17718 22.6862C5.8139 22.6851 5.4586 22.5552 5.18099 22.2921L4.75037 21.8836C4.45244 21.6019 4.30532 21.2271 4.30412 20.8422C4.30532 20.4812 4.43451 20.1288 4.70057 19.8512L9.04115 15.3216C9.32394 15.0266 9.70126 14.8789 10.0883 14.8784C10.4505 14.879 10.8046 15.0094 11.0845 15.273L11.5134 15.6821C11.5134 15.6821 11.9573 16.3386 11.9584 16.724C11.9573 17.0126 11.8704 17.2937 11.7017 17.5371C11.6873 17.5516 7.01689 22.419 7.01689 22.419C6.76886 22.5945 6.47561 22.6849 6.17718 22.6862ZM9.64378 27.2041C9.36159 27.498 8.98487 27.6451 8.59779 27.6463C8.23451 27.6457 7.8803 27.5153 7.60159 27.2522L7.17038 26.8425L7.16929 26.8419C6.87375 26.5614 6.72533 26.1853 6.72533 25.8004C6.72533 25.4395 6.85572 25.087 7.12048 24.8094C7.12048 24.8094 12.9064 18.7865 12.9551 18.7285C13.2316 18.4625 13.5879 18.3252 13.9559 18.3246C14.3191 18.3252 14.6734 18.4549 14.9521 18.7186L15.3833 19.1289C15.6799 19.4094 15.8272 19.7849 15.8283 20.1703C15.8271 20.5313 15.6968 20.8842 15.4319 21.1618L9.64378 27.2041ZM14.3859 29.7649C14.1043 30.0594 13.7277 30.2068 13.3405 30.2079C12.9772 30.2073 12.623 30.0769 12.3443 29.8132L11.9119 29.4034C11.6153 29.1223 11.4668 28.7469 11.4668 28.362C11.4668 28.0399 11.5764 27.7274 11.7861 27.4672L15.8155 23.2616C16.0873 23.0165 16.428 22.8873 16.781 22.8873C17.1443 22.8879 17.4985 23.0177 17.7772 23.2813L18.2096 23.6916C18.5051 23.9721 18.6536 24.3476 18.6546 24.7324C18.6535 25.0941 18.522 25.447 18.2582 25.7239L14.3859 29.7649ZM22.0421 29.321L19.5971 31.8728C19.3154 32.1672 18.9381 32.3145 18.5511 32.3156C18.1878 32.315 17.8336 32.1846 17.5549 31.9209L17.1237 31.5111C16.8281 31.2306 16.6797 30.8546 16.6786 30.4697C16.6797 30.108 16.8101 29.7551 17.075 29.4787L19.519 26.927C19.8018 26.6327 20.1791 26.4849 20.5662 26.4843C20.9283 26.4849 21.2836 26.6147 21.5623 26.8789L21.9947 27.2887C22.2903 27.5692 22.4375 27.9447 22.4387 28.3295C22.4373 28.6911 22.3069 29.044 22.0421 29.321ZM43.2826 22.3991C43.2821 22.7535 43.1551 23.1006 42.8978 23.3764L42.4927 23.8111C42.2099 24.1137 41.8262 24.2667 41.4333 24.2673C41.0769 24.2667 40.728 24.1414 40.4511 23.8855L33.6243 17.5721L32.4439 18.8361L39.751 25.6054C40.0553 25.8871 40.2082 26.2696 40.2105 26.6602C40.2082 27.016 40.0824 27.3625 39.8257 27.6384L39.4218 28.0731C39.139 28.3756 38.7553 28.528 38.3625 28.5292C38.0061 28.5281 37.656 28.4023 37.3813 28.1479L30.5528 21.8347L29.3735 23.0986L35.4335 28.7027C35.7256 28.9826 35.8752 29.3552 35.8752 29.7376C35.8752 30.0923 35.7494 30.4394 35.4927 30.7147L35.0876 31.1494C34.8059 31.4519 34.4211 31.6049 34.0272 31.606C33.6696 31.6049 33.3207 31.4791 33.0449 31.2247L26.997 25.641H26.9959L26.9948 25.6399L25.8179 26.9061L25.8191 26.9072L25.8417 26.9286L28.8708 29.7243C29.1391 30.0001 29.2782 30.3536 29.2793 30.7193C29.2782 31.0722 29.1535 31.4175 28.8968 31.6929L28.4917 32.1281C28.2089 32.4306 27.8264 32.5824 27.4346 32.5836C27.0782 32.5825 26.7293 32.4573 26.4535 32.2018L23.8161 29.7597C24.0456 29.3095 24.1737 28.8209 24.1737 28.3306C24.1748 27.499 23.8445 26.6605 23.1915 26.041L22.7591 25.6307C22.1466 25.0494 21.352 24.7591 20.5679 24.7602C20.5071 24.7602 20.4457 24.7742 20.3861 24.7777C20.3861 24.7632 20.3894 24.7481 20.3894 24.7336C20.3905 23.902 19.4072 22.4428 19.4072 22.4428L18.976 22.0337C18.5176 21.599 17.9583 21.3279 17.3766 21.2189C17.4965 20.8793 17.5643 20.5258 17.5643 20.1717C17.5643 19.3401 17.2351 18.5009 16.5821 17.8821L16.1509 17.4718C15.5371 16.89 14.7427 16.5996 13.9586 16.6002C13.867 16.6002 13.7767 16.6187 13.6856 16.6269C13.6607 15.8283 13.3391 15.0304 12.7132 14.4358V14.4352L12.2832 14.0267C11.6694 13.4443 10.8751 13.1539 10.0909 13.1545C9.25461 13.1539 8.41261 13.4819 7.78976 14.1322L6.76517 15.2014L2.22637 11.3302C1.90015 11.0509 1.73729 10.6649 1.7361 10.2685C1.73719 9.93645 1.85025 9.61133 2.0913 9.34139L6.88042 3.97792C7.07048 3.76466 7.35157 3.57171 7.68078 3.43774C8.00999 3.30386 8.38373 3.23035 8.73316 3.23085C9.03746 3.23085 9.32304 3.28593 9.55145 3.38445L12.1807 4.50635C12.9219 4.81872 13.7825 4.94682 14.6473 4.94961C15.5131 4.94672 16.3725 4.81862 17.1138 4.50635L19.7419 3.38494C20.147 3.20824 20.7583 3.09867 21.3662 3.10096C22.0385 3.09687 22.7118 3.23603 23.1024 3.43535C23.3504 3.55876 23.5857 3.6759 23.8042 3.78537L21.1239 5.66949C20.2626 6.27511 19.7985 7.23823 19.7997 8.21012C19.7986 8.8534 20.0025 9.50823 20.4174 10.064L20.4163 10.0628L20.7704 10.5385C21.4426 11.4322 22.4909 11.8917 23.5387 11.894C24.1304 11.894 24.7331 11.7445 25.2703 11.4222L26.8732 10.4596C27.2001 10.2597 27.6938 10.1334 28.2043 10.1357C28.8041 10.1322 29.4086 10.3096 29.7719 10.5766L34.2065 13.7559C35.1934 14.4629 36.8009 15.7744 37.6917 16.5996L42.8245 21.3453C43.1284 21.6271 43.2814 22.0079 43.2826 22.3991ZM48.8124 10.6415L41.9746 18.2024L38.8701 15.3327C37.8977 14.435 36.2942 13.1259 35.2186 12.3534L30.7853 9.17414C30.0336 8.64163 29.1133 8.41143 28.2035 8.40805C27.4292 8.41034 26.6492 8.57908 25.9758 8.98L24.3741 9.94263C24.1284 10.0904 23.8387 10.1658 23.5378 10.1664C22.9999 10.1681 22.4616 9.91713 22.1615 9.50853L21.8086 9.03339L21.8074 9.0322C21.6196 8.77899 21.5322 8.49501 21.5309 8.20753C21.5332 7.77284 21.7337 7.35099 22.122 7.07687L26.8614 3.74693C27.2712 3.45029 28.0002 3.2422 28.6927 3.24738C29.1737 3.24509 29.6332 3.34181 29.9479 3.4972L33.8062 5.36618C34.4641 5.68204 35.2064 5.81123 35.9533 5.81302C36.9129 5.80834 37.883 5.59976 38.6823 5.10888L42.6236 2.657C42.8752 2.50002 43.1771 2.41883 43.4918 2.41883C44.0239 2.41774 44.557 2.65879 44.8589 3.05225L48.8998 8.22277C49.1328 8.51891 49.2678 8.93667 49.2678 9.36968C49.2685 9.85388 49.0975 10.3303 48.8124 10.6415Z" fill="#E04E39"/>
</svg>
