<svg width="51" height="39" viewBox="0 0 51 39" fill="none" xmlns="http://www.w3.org/2000/svg">
<path d="M30.1034 18.8965H28.7196V15.7674C28.7196 12.4837 26.0481 9.81244 22.7646 9.81244C19.4811 9.81244 16.8097 12.4838 16.8097 15.7674V18.8965H15.4261C14.9388 18.8965 14.5437 19.2916 14.5437 19.7789V32.7877C14.5437 33.275 14.9388 33.67 15.4261 33.67H30.1034C30.5907 33.67 30.9858 33.275 30.9858 32.7877V19.7789C30.9858 19.2916 30.5907 18.8965 30.1034 18.8965ZM18.5744 15.7675C18.5744 13.457 20.4542 11.5773 22.7646 11.5773C25.0751 11.5773 26.9549 13.457 26.9549 15.7675V18.8967H18.5744V15.7675ZM29.2211 31.9054H16.3084V20.6614H29.2211V31.9054Z" fill="#E04E39"/>
<path d="M21.8822 27.4285V29.572C21.8822 30.0593 22.2772 30.4544 22.7645 30.4544C23.2518 30.4544 23.6469 30.0593 23.6469 29.572V27.4285C24.7131 27.0612 25.4817 26.0486 25.4817 24.8592C25.4817 23.361 24.2628 22.1421 22.7645 22.1421C21.2663 22.1421 20.0475 23.361 20.0475 24.8592C20.0475 26.0486 20.816 27.0613 21.8822 27.4285ZM22.7645 23.9069C23.2897 23.9069 23.717 24.3342 23.717 24.8593C23.717 25.3845 23.2897 25.8118 22.7645 25.8118C22.2394 25.8118 21.8122 25.3845 21.8122 24.8593C21.8122 24.3342 22.2394 23.9069 22.7645 23.9069Z" fill="#E04E39"/>
<path d="M50.4791 11.4219C50.0171 10.8361 49.3241 10.5001 48.578 10.5001H45.5293V7.32725C45.5293 6.09267 44.5248 5.08832 43.2904 5.08832H21.9835C21.837 5.08832 21.7056 4.99573 21.6562 4.85785L20.7404 2.29515C20.4323 1.43256 19.6098 0.853149 18.6938 0.853149H8.01198C7.0961 0.853149 6.27363 1.43268 5.9654 2.29515L5.04952 4.85796C5.00022 4.99585 4.86869 5.08843 4.72234 5.08843H2.23894C1.00447 5.0882 0 6.09267 0 7.32725V35.9081C0 37.1427 1.00447 38.1471 2.23894 38.1471H43.2904C44.4804 38.1471 45.4537 37.2132 45.5226 36.0402L50.9322 13.4858C51.1062 12.7601 50.9411 12.0078 50.4791 11.4219ZM43.7646 35.908C43.7646 36.1695 43.5518 36.3822 43.2904 36.3822H2.23894C1.97741 36.3822 1.7647 36.1694 1.7647 35.908V7.32725C1.7647 7.06572 1.97752 6.85302 2.23894 6.85302H4.72234C5.61246 6.85302 6.41175 6.28984 6.71128 5.45161L7.62716 2.88879C7.68516 2.72667 7.83975 2.61773 8.01198 2.61773H18.6938C18.8661 2.61773 19.0207 2.72667 19.0787 2.88891L19.9944 5.45173C20.2941 6.28996 21.0934 6.85302 21.9835 6.85302H43.2904C43.5519 6.85302 43.7646 7.06584 43.7646 7.32725V35.908ZM49.2162 13.0742L45.5293 28.4461V12.2647H48.578C48.8549 12.2647 49.0198 12.4212 49.0934 12.5147C49.1669 12.6079 49.2808 12.8048 49.2162 13.0742Z" fill="#E04E39"/>
</svg>
